<?xml version="1.0" encoding="utf-8"?>
<!-- Generator: Adobe Illustrator 21.1.0, SVG Export Plug-In . SVG Version: 6.00 Build 0)  -->
<svg version="1.1" id="Layer_1" xmlns="http://www.w3.org/2000/svg" xmlns:xlink="http://www.w3.org/1999/xlink" x="0px" y="0px"
	 viewBox="0 0 1728 1256" style="enable-background:new 0 0 1728 1256;" xml:space="preserve">
<style type="text/css">
	.st0{opacity:0.7;}
	.st1{fill:#232323;}
</style>
<g class="st0">
	<g>
		<path class="st1" d="M1605.2,475.6c-507.7,0-1015.3,0-1524.1,0c-45.1,0-45.1,257.6,0,257.6c3.2,0,7.5,0,10.7,0
			c45.1,0,45.1-257.6,0-257.6c-3.2,0-7.5,0-10.7,0c-45.1,0-45.1,257.6,0,257.6c507.7,0,1015.3,0,1524.1,0
			C1651.4,733.2,1651.4,475.6,1605.2,475.6L1605.2,475.6z"/>
	</g>
</g>
<g class="st0">
	<g>
		<path class="st1" d="M606,67.8C425.7,208.4,246.5,350.1,69.4,493.9c-33.3,26.8-23.6,123.4-21.5,158.8
			c1.1,10.7,8.6,113.8,37.6,90.2c177.1-143.8,356.3-285.5,536.6-426.1c33.3-25.8,23.6-124.5,21.5-158.8
			C642.5,147.2,635,45.3,606,67.8L606,67.8z"/>
	</g>
</g>
<g class="st0">
	<g>
		<path class="st1" d="M622.1,920C441.8,779.4,262.6,637.7,85.5,493.9c-29-23.6-37.6,79.4-37.6,90.2c-2.1,35.4-11.8,132,21.5,158.8
			C246.5,886.7,425.7,1028.4,606,1169c30.1,23.6,37.6-78.4,37.6-90.2C645.7,1043.4,655.4,945.8,622.1,920L622.1,920z"/>
	</g>
</g>
</svg>
