<?xml version="1.0" encoding="utf-8"?>
<!-- Generator: Adobe Illustrator 21.1.0, SVG Export Plug-In . SVG Version: 6.00 Build 0)  -->
<svg version="1.1" id="Layer_1" xmlns="http://www.w3.org/2000/svg" xmlns:xlink="http://www.w3.org/1999/xlink" x="0px" y="0px"
	 viewBox="0 0 161 120.5" style="enable-background:new 0 0 161 120.5;" xml:space="preserve">
<style type="text/css">
	.st0{opacity:0.7;}
	.st1{fill:#232323;}
</style>
<g class="st0">
	<g>
		<path class="st1" d="M7.3,74c47.3,0,94.6,0,142,0c4.2,0,4.2-24,0-24c-0.3,0-0.7,0-1,0c-4.2,0-4.2,24,0,24c0.3,0,0.7,0,1,0
			c4.2,0,4.2-24,0-24c-47.3,0-94.6,0-142,0C3,50,3,74,7.3,74L7.3,74z"/>
	</g>
</g>
<g class="st0">
	<g>
		<path class="st1" d="M100.4,112c16.8-13.1,33.5-26.3,50-39.7c3.1-2.5,2.2-11.5,2-14.8c-0.1-1-0.8-10.6-3.5-8.4
			c-16.5,13.4-33.2,26.6-50,39.7c-3.1,2.4-2.2,11.6-2,14.8C97,104.6,97.7,114.1,100.4,112L100.4,112z"/>
	</g>
</g>
<g class="st0">
	<g>
		<path class="st1" d="M98.9,32.6c16.8,13.1,33.5,26.3,50,39.7c2.7,2.2,3.5-7.4,3.5-8.4c0.2-3.3,1.1-12.3-2-14.8
			c-16.5-13.4-33.2-26.6-50-39.7c-2.8-2.2-3.5,7.3-3.5,8.4C96.7,21.1,95.8,30.2,98.9,32.6L98.9,32.6z"/>
	</g>
</g>
</svg>
